<svg width="200" height="200" viewBox="0 0 255 255" fill="none" id="discotools-selected-svg"
    xmlns="http://www.w3.org/2000/svg">
    <defs>
        <linearGradient id="shape-gradient-Square" gradientTransform="rotate(90)">
            <stop offset="0%" stop-color="rgba(255, 67, 78, 0.18)"></stop>
        </linearGradient>
    </defs>
    <defs>
        <mask id="mask-Square" fill="black">
            <rect width="100%" height="100%" fill="white"></rect>
            <g opacity="100" style="transform-origin: center center;"></g>
        </mask>
    </defs>
    <g fill="url(#shape-gradient-Square)">
        <g mask="url(#mask-Square)">
            <rect x="0.5" y="0.5" width="254" height="254" rx="40" stroke="#ffffff" stroke-linejoin="round" stroke-width="0" style="transform: none; transform-origin: 127.5px 127.5px;" transform-origin="127.5px 127.5px"></rect>
        </g>
    </g>
    <defs>
        <linearGradient id="icon-gradient-0" gradientTransform="rotate(0)">
            <stop offset="0%" stop-color="rgba(255, 67, 78, 0.99)"></stop>
        </linearGradient>
    </defs>
    <g fill="url(#icon-gradient-0)" stroke="#FFFFFF" stroke-linejoin="round" stroke-width="0" style="transform-origin: 85px 73.0785px; transform: translateX(42.5px) translateY(54px) scale(0.9) rotate(0deg);" filter="false" transform-origin="85.00000011920929px 73.07849884033209px">
        <path d="M84.9998508,63.2822404 C99.814438,63.2822404 114.271759,70.887757 125.709585,84.6976165 C135.990612,97.110619 142.127885,112.754621 142.127885,126.545223 C142.127885,133.149332 140.067629,138.211154 136.004226,141.589576 C128.811825,147.569693 117.194635,146.573025 105.913952,144.662569 L104.933987,144.494287 C103.791954,144.295615 102.654806,144.089347 101.527512,143.881814 L100.56379,143.703766 C100.243431,143.644412 99.9239923,143.585102 99.6055901,143.525985 C94.019822,142.48905 88.7428433,141.509557 85.0001828,141.509557 C80.6638497,141.509557 75.0379058,142.541511 69.0815903,143.634227 C62.265313,144.884658 55.3278441,146.157003 49.0800049,146.157003 C43.2083576,146.157003 37.9453242,145.03374 33.9589525,141.712096 C29.9201197,138.346955 27.8721486,133.244293 27.8721486,126.545223 C27.8721486,112.754621 34.0097533,97.110619 44.2904487,84.6976165 C55.7276102,70.887757 70.1852635,63.2822404 84.9998508,63.2822404 Z M158.828412,46.1079044 C163.706953,47.9403869 167.323109,52.1103722 169.010162,57.8492069 C170.489134,62.8789361 170.304454,68.6381301 168.498381,74.1270078 L168.31854,74.6573121 L168.154327,75.1162042 C165.697841,81.8103918 161.136327,87.1147625 155.583135,89.7132863 C153.234011,90.8126431 150.783617,91.3668038 148.384025,91.3668038 C146.573788,91.3668038 144.792439,91.0517058 143.104058,90.4175254 C138.225185,88.5850428 134.609029,84.4150576 132.921976,78.6762229 C131.395627,73.4842443 131.641662,67.5153117 133.614262,61.8681177 C136.028132,54.9575434 140.670266,49.4697246 146.349667,46.8121434 C150.470844,44.8833717 154.90247,44.6333519 158.828412,46.1079044 Z M23.6506985,46.8118114 C29.3297675,49.4693926 33.9719017,54.9568793 36.3861037,61.8674537 C38.3583716,67.5149797 38.604407,73.4842443 37.0787217,78.6758909 C35.391669,84.4143935 31.7758445,88.5843788 26.8963077,90.4171934 C25.2082589,91.0510418 23.4265771,91.3664718 21.6163407,91.3664718 C19.2167481,91.3664718 16.7666867,90.812311 14.4172309,89.7129543 C8.8643634,87.1144305 4.30317423,81.8103772 1.8460812,75.1158933 L1.68182566,74.6573121 C-0.290774251,69.0101181 -0.536809689,63.0408534 0.989539715,57.8488748 C2.67659243,52.1103722 6.29274891,47.9403869 11.1716217,46.1075723 C15.0972317,44.6333519 19.5291899,44.8830397 23.6506985,46.8118114 Z M110.43779,0.00033203163 C116.701567,0.00033203163 122.694074,3.53879311 126.879,9.7089369 C130.723595,15.3767168 132.840628,22.8205339 132.840628,30.6684336 C132.840628,38.5163332 130.723262,45.9598183 126.879,51.6279302 C122.694074,57.797742 116.701899,61.3365351 110.43779,61.3365351 C104.174013,61.3365351 98.1815065,57.797742 93.9965798,51.6279302 C90.1519856,45.9598183 88.0349519,38.5163332 88.0349519,30.6684336 C88.0349519,22.8205339 90.1523176,15.3770489 93.9965798,9.7089369 C98.1815065,3.53912515 104.173681,0.00033203163 110.43779,0.00033203163 Z M59.5622435,5.68434189e-14 C65.8263522,5.68434189e-14 71.8185271,3.53846108 76.0034537,9.70860487 C79.847716,15.3763848 81.9650817,22.8202019 81.9650817,30.6681015 C81.9650817,38.5163332 79.847716,45.9594862 76.0034537,51.6275982 C71.8185271,57.797742 65.8263522,61.3365351 59.5622435,61.3365351 C53.2981348,61.3365351 47.3059599,57.797742 43.1210333,51.6275982 C39.276439,45.9594862 37.1594054,38.5160011 37.1594054,30.6681015 C37.1594054,22.8202019 39.2767711,15.3767168 43.1210333,9.70860487 C47.3056279,3.53879311 53.2981348,5.68434189e-14 59.5622435,5.68434189e-14 Z" viewBox="0 0 170 147"></path>
    </g>
</svg>